<svg width="1125" height="390" viewBox="0 0 1125 390" fill="none" xmlns="http://www.w3.org/2000/svg">
<path d="M501.943 105.048C496.366 105.048 491.071 104.24 486.06 102.623C481.048 101.007 476.643 98.4607 472.844 94.9851C469.126 91.4286 466.176 86.9425 463.993 81.5269C461.811 76.0305 460.72 69.4025 460.72 61.6428V59.218C460.72 51.7816 461.811 45.3961 463.993 40.0613C466.176 34.7266 469.126 30.3618 472.844 26.9669C476.643 23.5721 481.048 21.0664 486.06 19.4498C491.071 17.8332 496.366 17.0249 501.943 17.0249C507.52 17.0249 512.814 17.8332 517.826 19.4498C522.837 21.0664 527.202 23.5721 530.92 26.9669C534.719 30.3618 537.71 34.7266 539.892 40.0613C542.075 45.3961 543.166 51.7816 543.166 59.218V61.6428C543.166 69.4025 542.075 76.0305 539.892 81.5269C537.71 86.9425 534.719 91.4286 530.92 94.9851C527.202 98.4607 522.837 101.007 517.826 102.623C512.814 104.24 507.52 105.048 501.943 105.048ZM501.943 86.8617C504.368 86.8617 506.712 86.4979 508.975 85.7705C511.238 84.9622 513.219 83.6285 514.916 81.7694C516.613 79.8295 517.987 77.243 519.038 74.0098C520.089 70.7766 520.614 66.6543 520.614 61.6428V59.218C520.614 54.5298 520.089 50.65 519.038 47.5785C517.987 44.4261 516.613 41.9608 514.916 40.1826C513.219 38.3235 511.238 37.0302 508.975 36.3028C506.712 35.5753 504.368 35.2116 501.943 35.2116C499.518 35.2116 497.174 35.5753 494.911 36.3028C492.647 37.0302 490.667 38.3235 488.97 40.1826C487.272 41.9608 485.898 44.4261 484.847 47.5785C483.797 50.65 483.271 54.5298 483.271 59.218V61.6428C483.271 66.6543 483.797 70.7766 484.847 74.0098C485.898 77.243 487.272 79.8295 488.97 81.7694C490.667 83.6285 492.647 84.9622 494.911 85.7705C497.174 86.4979 499.518 86.8617 501.943 86.8617ZM593.062 105.048C590.637 105.048 588.374 104.765 586.272 104.2C584.17 103.634 582.271 102.866 580.574 101.896C578.876 100.926 577.381 99.8348 576.088 98.6224C574.875 97.3291 573.865 96.0358 573.056 94.7426V103.472H555.84V18.6011H574.511V47.336C576.694 44.1836 579.402 41.7992 582.635 40.1826C585.949 38.4852 589.424 37.6364 593.062 37.6364C602.115 37.6364 608.985 40.3038 613.673 45.6386C618.361 50.9733 620.705 58.9351 620.705 69.5237V71.9486C620.705 77.445 620.059 82.2544 618.766 86.3767C617.472 90.499 615.613 93.9343 613.188 96.6825C610.763 99.4307 607.854 101.532 604.459 102.987C601.064 104.361 597.265 105.048 593.062 105.048ZM588.576 89.6503C592.294 89.6503 595.365 88.155 597.79 85.1643C600.296 82.1736 601.549 77.7684 601.549 71.9486V69.5237C601.549 63.9465 600.336 59.8242 597.912 57.1568C595.567 54.4086 592.456 53.0345 588.576 53.0345C584.615 53.0345 581.261 54.2874 578.512 56.7931C575.845 59.218 574.511 62.8553 574.511 67.7051V73.7673C574.511 78.8596 575.845 82.7798 578.512 85.528C581.261 88.2762 584.615 89.6503 588.576 89.6503ZM628.494 129.297C627.604 129.297 626.594 129.257 625.462 129.176C624.331 129.176 623.32 129.095 622.431 128.933V113.414C623.078 113.576 623.805 113.657 624.614 113.657C625.341 113.738 626.028 113.778 626.675 113.778C627.645 113.778 628.494 113.616 629.221 113.293C630.029 112.97 630.676 112.363 631.161 111.474C631.727 110.585 632.131 109.332 632.373 107.716C632.697 106.18 632.858 104.159 632.858 101.654V39.2126H651.53V103.472C651.53 108.564 651.166 112.768 650.439 116.082C649.711 119.396 648.458 122.023 646.68 123.962C644.983 125.983 642.639 127.357 639.648 128.085C636.657 128.893 632.939 129.297 628.494 129.297ZM642.194 33.1504C638.718 33.1504 636.011 32.2613 634.071 30.483C632.212 28.624 631.282 26.2799 631.282 23.4509C631.282 20.6218 632.212 18.3182 634.071 16.5399C636.011 14.6808 638.718 13.7513 642.194 13.7513C645.67 13.7513 648.337 14.6808 650.196 16.5399C652.136 18.3182 653.106 20.6218 653.106 23.4509C653.106 26.2799 652.136 28.624 650.196 30.483C648.337 32.2613 645.67 33.1504 642.194 33.1504ZM697.047 105.048C692.359 105.048 687.953 104.402 683.831 103.108C679.79 101.734 676.274 99.6732 673.283 96.925C670.292 94.1768 667.948 90.7415 666.251 86.6192C664.553 82.4161 663.705 77.5259 663.705 71.9486V69.5237C663.705 64.189 664.513 59.5413 666.129 55.5806C667.827 51.62 670.09 48.306 672.919 45.6386C675.829 42.9712 679.224 40.9909 683.104 39.6976C687.064 38.3235 691.308 37.6364 695.834 37.6364C706.423 37.6364 714.425 40.3847 719.841 45.8811C725.256 51.2967 727.964 59.1775 727.964 69.5237V76.1922H682.861C682.942 78.6979 683.387 80.8399 684.195 82.6181C685.003 84.3156 686.054 85.7301 687.347 86.8617C688.641 87.9933 690.095 88.842 691.712 89.4078C693.409 89.8928 695.188 90.1353 697.047 90.1353C700.603 90.1353 703.392 89.6099 705.413 88.5591C707.514 87.4275 708.888 85.9321 709.535 84.0731H726.752C725.458 91.1052 722.266 96.3592 717.173 99.8348C712.081 103.311 705.372 105.048 697.047 105.048ZM696.441 52.4283C694.743 52.4283 693.086 52.6303 691.47 53.0345C689.934 53.4386 688.519 54.1257 687.226 55.0956C686.014 55.9848 685.003 57.1568 684.195 58.6117C683.467 60.0667 683.063 61.8449 682.982 63.9465H709.656C709.656 61.6833 709.292 59.8242 708.565 58.3692C707.838 56.9143 706.868 55.7423 705.655 54.8532C704.524 53.964 703.149 53.3578 701.533 53.0345C699.916 52.6303 698.219 52.4283 696.441 52.4283ZM769.168 105.048C764.399 105.048 759.994 104.361 755.953 102.987C751.992 101.613 748.557 99.5519 745.647 96.8037C742.737 94.0555 740.474 90.6203 738.857 86.498C737.241 82.3756 736.432 77.5259 736.432 71.9486V69.5237C736.432 64.4315 737.281 59.905 738.978 55.9444C740.757 51.9837 743.101 48.6697 746.011 46.0023C749.001 43.2541 752.477 41.193 756.438 39.8188C760.398 38.3639 764.642 37.6364 769.168 37.6364C774.018 37.6364 778.262 38.2831 781.899 39.5764C785.617 40.8696 788.729 42.6479 791.235 44.9111C793.74 47.0935 795.68 49.6801 797.054 52.6708C798.429 55.6615 799.237 58.8542 799.479 62.2491H780.323C779.676 59.3392 778.464 57.1164 776.685 55.5806C774.988 53.964 772.482 53.1557 769.168 53.1557C765.208 53.1557 761.934 54.5298 759.347 57.278C756.842 59.9454 755.589 64.0273 755.589 69.5237V71.9486C755.589 77.93 756.801 82.3352 759.226 85.1643C761.732 87.9933 765.046 89.4078 769.168 89.4078C771.997 89.4078 774.382 88.6803 776.322 87.2254C778.342 85.6897 779.676 83.4264 780.323 80.4357H799.479C799.237 84.2347 798.348 87.67 796.812 90.7415C795.276 93.7322 793.175 96.2783 790.507 98.3799C787.921 100.481 784.809 102.138 781.171 103.351C777.615 104.483 773.614 105.048 769.168 105.048ZM837.089 104.2C833.047 104.2 829.572 103.836 826.662 103.108C823.752 102.3 821.367 101.007 819.508 99.2286C817.649 97.4504 816.275 95.1467 815.386 92.3177C814.497 89.4078 814.052 85.8513 814.052 81.6482V54.4894H806.172V39.2126H814.052V24.6633H832.724V39.2126H847.395V54.4894H832.724V78.6171C832.724 82.2544 833.29 84.8409 834.421 86.3767C835.634 87.9125 837.938 88.6803 841.332 88.6803C843.757 88.6803 846.182 88.5591 848.607 88.3166V103.593C847.071 103.755 845.455 103.876 843.757 103.957C842.06 104.119 839.837 104.2 837.089 104.2ZM463.751 148.601H504.368C514.31 148.601 521.544 150.581 526.07 154.542C530.597 158.422 532.86 163.999 532.86 171.274C532.86 175.639 531.728 179.397 529.465 182.55C527.202 185.621 524.131 187.844 520.251 189.218C525.262 190.35 529.223 192.653 532.133 196.129C535.042 199.524 536.497 203.969 536.497 209.466C536.497 216.902 534.032 222.762 529.102 227.046C524.252 231.33 516.411 233.472 505.58 233.472H463.751V148.601ZM500.73 216.74C505.984 216.74 509.622 215.973 511.642 214.437C513.663 212.82 514.673 210.355 514.673 207.041C514.673 203.727 513.623 201.262 511.521 199.645C509.5 198.028 505.823 197.22 500.488 197.22H485.575V216.74H500.73ZM499.033 182.428C503.721 182.428 506.873 181.701 508.49 180.246C510.187 178.71 511.036 176.568 511.036 173.82C511.036 170.991 510.187 168.889 508.49 167.515C506.873 166.06 503.761 165.333 499.154 165.333H485.575V182.428H499.033ZM571.062 234.2C567.182 234.2 563.827 233.876 560.998 233.23C558.169 232.583 555.825 231.411 553.966 229.714C552.188 227.935 550.854 225.551 549.965 222.56C549.076 219.489 548.631 215.568 548.631 210.799V148.601H567.303V208.011C567.303 210.032 567.424 211.729 567.667 213.103C567.909 214.477 568.313 215.568 568.879 216.377C569.526 217.185 570.415 217.791 571.547 218.195C572.678 218.519 574.093 218.68 575.79 218.68C576.76 218.68 577.568 218.68 578.215 218.68C578.862 218.6 579.508 218.519 580.155 218.438V233.836C577.73 234.078 574.699 234.2 571.062 234.2ZM619.569 235.048C615.042 235.048 610.799 234.402 606.838 233.108C602.877 231.734 599.402 229.673 596.411 226.925C593.42 224.177 591.076 220.742 589.379 216.619C587.682 212.416 586.833 207.526 586.833 201.949V199.524C586.833 194.27 587.682 189.663 589.379 185.702C591.076 181.741 593.42 178.427 596.411 175.76C599.402 173.092 602.877 171.072 606.838 169.698C610.799 168.324 615.042 167.636 619.569 167.636C624.095 167.636 628.339 168.324 632.299 169.698C636.26 171.072 639.736 173.092 642.726 175.76C645.717 178.427 648.061 181.741 649.759 185.702C651.456 189.663 652.305 194.27 652.305 199.524V201.949C652.305 207.445 651.456 212.295 649.759 216.498C648.061 220.62 645.717 224.056 642.726 226.804C639.736 229.552 636.26 231.613 632.299 232.987C628.339 234.361 624.095 235.048 619.569 235.048ZM619.569 219.529C623.934 219.529 627.288 217.953 629.632 214.801C631.976 211.648 633.148 207.364 633.148 201.949V199.524C633.148 194.674 631.976 190.754 629.632 187.763C627.288 184.691 623.934 183.156 619.569 183.156C615.204 183.156 611.85 184.691 609.506 187.763C607.161 190.754 605.989 194.674 605.989 199.524V201.949C605.989 207.526 607.161 211.85 609.506 214.922C611.85 217.993 615.204 219.529 619.569 219.529ZM693.481 235.048C688.712 235.048 684.306 234.361 680.265 232.987C676.304 231.613 672.869 229.552 669.959 226.804C667.049 224.056 664.786 220.62 663.169 216.498C661.553 212.376 660.745 207.526 660.745 201.949V199.524C660.745 194.431 661.593 189.905 663.291 185.944C665.069 181.984 667.413 178.67 670.323 176.002C673.314 173.254 676.789 171.193 680.75 169.819C684.711 168.364 688.954 167.636 693.481 167.636C698.33 167.636 702.574 168.283 706.211 169.576C709.929 170.87 713.041 172.648 715.547 174.911C718.053 177.094 719.993 179.68 721.367 182.671C722.741 185.661 723.549 188.854 723.792 192.249H704.635C703.988 189.339 702.776 187.116 700.998 185.581C699.3 183.964 696.795 183.156 693.481 183.156C689.52 183.156 686.246 184.53 683.66 187.278C681.154 189.945 679.901 194.027 679.901 199.524V201.949C679.901 207.93 681.114 212.335 683.538 215.164C686.044 217.993 689.358 219.408 693.481 219.408C696.31 219.408 698.694 218.68 700.634 217.225C702.655 215.69 703.988 213.426 704.635 210.436H723.792C723.549 214.235 722.66 217.67 721.124 220.742C719.588 223.732 717.487 226.278 714.82 228.38C712.233 230.481 709.121 232.138 705.484 233.351C701.927 234.483 697.926 235.048 693.481 235.048ZM734.121 148.601H752.793V193.946L773.525 169.213H794.622L772.071 196.25L797.168 233.472H775.587L759.461 209.223L752.793 216.983V233.472H734.121V148.601ZM833.608 235.048C828.839 235.048 824.434 234.361 820.392 232.987C816.431 231.613 812.996 229.552 810.086 226.804C807.177 224.056 804.913 220.62 803.297 216.498C801.68 212.376 800.872 207.526 800.872 201.949V199.524C800.872 194.431 801.721 189.905 803.418 185.944C805.196 181.984 807.54 178.67 810.45 176.002C813.441 173.254 816.916 171.193 820.877 169.819C824.838 168.364 829.081 167.636 833.608 167.636C838.458 167.636 842.701 168.283 846.338 169.576C850.057 170.87 853.169 172.648 855.674 174.911C858.18 177.094 860.12 179.68 861.494 182.671C862.868 185.661 863.676 188.854 863.919 192.249H844.762C844.116 189.339 842.903 187.116 841.125 185.581C839.428 183.964 836.922 183.156 833.608 183.156C829.647 183.156 826.374 184.53 823.787 187.278C821.281 189.945 820.028 194.027 820.028 199.524V201.949C820.028 207.93 821.241 212.335 823.666 215.164C826.171 217.993 829.485 219.408 833.608 219.408C836.437 219.408 838.821 218.68 840.761 217.225C842.782 215.69 844.116 213.426 844.762 210.436H863.919C863.676 214.235 862.787 217.67 861.252 220.742C859.716 223.732 857.614 226.278 854.947 228.38C852.36 230.481 849.248 232.138 845.611 233.351C842.054 234.483 838.053 235.048 833.608 235.048ZM874.248 148.601H892.92V177.336C893.567 176.285 894.456 175.194 895.587 174.062C896.719 172.931 898.093 171.88 899.71 170.91C901.407 169.94 903.347 169.172 905.529 168.606C907.712 167.96 910.137 167.636 912.804 167.636C920.483 167.636 926.262 169.738 930.142 173.941C934.103 178.063 936.083 183.924 936.083 191.522V233.472H917.411V195.886C917.411 191.683 916.482 188.531 914.623 186.429C912.844 184.247 909.894 183.156 905.772 183.156C901.245 183.156 897.972 184.368 895.951 186.793C893.93 189.218 892.92 192.249 892.92 195.886V233.472H874.248V148.601ZM968.876 235.048C965.4 235.048 962.288 234.523 959.54 233.472C956.873 232.421 954.609 231.007 952.75 229.229C950.891 227.37 949.477 225.228 948.507 222.803C947.537 220.297 947.052 217.589 947.052 214.679C947.052 208.294 948.992 203.404 952.872 200.009C956.832 196.614 962.773 194.916 970.694 194.916H989.002V192.249C989.002 188.369 988.073 185.702 986.214 184.247C984.355 182.711 981.809 181.943 978.575 181.943C975.504 181.943 973.241 182.428 971.786 183.398C970.331 184.368 969.522 185.904 969.361 188.006H950.689C950.851 185.096 951.578 182.428 952.872 180.003C954.165 177.498 955.983 175.356 958.328 173.577C960.752 171.718 963.703 170.263 967.178 169.213C970.654 168.162 974.655 167.636 979.182 167.636C983.385 167.636 987.224 168.121 990.7 169.091C994.256 169.981 997.287 171.476 999.793 173.577C1002.3 175.598 1004.24 178.266 1005.61 181.58C1006.99 184.813 1007.67 188.773 1007.67 193.462V217.104C1007.67 220.499 1007.75 223.49 1007.92 226.076C1008.08 228.582 1008.32 231.047 1008.64 233.472H990.942C990.781 232.098 990.619 230.886 990.457 229.835C990.376 228.784 990.336 227.491 990.336 225.955C988.396 228.542 985.688 230.724 982.213 232.502C978.818 234.2 974.372 235.048 968.876 235.048ZM974.938 221.954C978.899 221.954 982.213 220.822 984.88 218.559C987.628 216.296 989.002 213.184 989.002 209.223V206.556H974.332C971.584 206.556 969.522 207.283 968.148 208.738C966.855 210.193 966.208 211.891 966.208 213.831C966.208 216.175 966.855 218.115 968.148 219.65C969.522 221.186 971.786 221.954 974.938 221.954ZM1021.63 169.213H1040.3V233.472H1021.63V169.213ZM1030.96 163.15C1027.49 163.15 1024.78 162.261 1022.84 160.483C1020.98 158.624 1020.05 156.28 1020.05 153.451C1020.05 150.622 1020.98 148.318 1022.84 146.54C1024.78 144.681 1027.49 143.751 1030.96 143.751C1034.44 143.751 1037.11 144.681 1038.96 146.54C1040.9 148.318 1041.87 150.622 1041.87 153.451C1041.87 156.28 1040.9 158.624 1038.96 160.483C1037.11 162.261 1034.44 163.15 1030.96 163.15ZM1054.9 169.213H1072.11V177.942C1073.73 175.113 1076.24 172.688 1079.63 170.668C1083.11 168.647 1087.71 167.636 1093.45 167.636C1101.13 167.636 1106.91 169.738 1110.79 173.941C1114.75 178.063 1116.73 183.964 1116.73 191.643V233.472H1098.06V195.886C1098.06 191.683 1097.13 188.531 1095.27 186.429C1093.49 184.247 1090.54 183.156 1086.42 183.156C1084.16 183.156 1082.22 183.519 1080.6 184.247C1078.99 184.894 1077.65 185.783 1076.6 186.914C1075.55 188.046 1074.78 189.42 1074.3 191.037C1073.81 192.572 1073.57 194.189 1073.57 195.886V233.472H1054.9V169.213ZM463.751 278.601H486.06L509.581 321.643L532.86 278.601H554.684V363.472H532.86V314.853L515.28 347.104H503.155L485.575 314.853V363.472H463.751V278.601ZM590.409 365.048C586.933 365.048 583.821 364.523 581.073 363.472C578.405 362.421 576.142 361.007 574.283 359.229C572.424 357.37 571.009 355.228 570.039 352.803C569.07 350.297 568.585 347.589 568.585 344.679C568.585 338.294 570.524 333.404 574.404 330.009C578.365 326.614 584.306 324.916 592.227 324.916H610.535V322.249C610.535 318.369 609.606 315.702 607.747 314.247C605.887 312.711 603.341 311.943 600.108 311.943C597.037 311.943 594.773 312.428 593.318 313.398C591.863 314.368 591.055 315.904 590.894 318.006H572.222C572.384 315.096 573.111 312.428 574.404 310.003C575.698 307.498 577.516 305.356 579.86 303.577C582.285 301.718 585.235 300.263 588.711 299.213C592.187 298.162 596.188 297.636 600.714 297.636C604.917 297.636 608.757 298.121 612.233 299.091C615.789 299.981 618.82 301.476 621.326 303.577C623.832 305.598 625.772 308.266 627.146 311.58C628.52 314.813 629.207 318.773 629.207 323.462V347.104C629.207 350.499 629.288 353.49 629.449 356.076C629.611 358.582 629.853 361.047 630.177 363.472H612.475C612.313 362.098 612.152 360.886 611.99 359.835C611.909 358.784 611.869 357.491 611.869 355.955C609.929 358.542 607.221 360.724 603.745 362.502C600.351 364.2 595.905 365.048 590.409 365.048ZM596.471 351.954C600.431 351.954 603.745 350.822 606.413 348.559C609.161 346.296 610.535 343.184 610.535 339.223V336.556H595.865C593.116 336.556 591.055 337.283 589.681 338.738C588.388 340.193 587.741 341.891 587.741 343.831C587.741 346.175 588.388 348.115 589.681 349.65C591.055 351.186 593.318 351.954 596.471 351.954ZM641.947 299.213H659.164V307.942C659.972 306.649 660.982 305.396 662.195 304.184C663.488 302.89 664.983 301.759 666.681 300.789C668.378 299.819 670.278 299.051 672.379 298.485C674.481 297.919 676.744 297.636 679.169 297.636C688.222 297.636 695.092 300.304 699.78 305.639C704.469 310.973 706.813 318.935 706.813 329.524V331.949C706.813 337.445 706.166 342.254 704.873 346.377C703.579 350.499 701.72 353.934 699.296 356.682C696.871 359.431 693.961 361.532 690.566 362.987C687.171 364.361 683.372 365.048 679.169 365.048C675.532 365.048 672.056 364.24 668.742 362.623C665.509 360.926 662.801 358.501 660.619 355.349V387.721H641.947V299.213ZM674.683 349.65C678.401 349.65 681.473 348.155 683.897 345.164C686.403 342.174 687.656 337.768 687.656 331.949V329.524C687.656 323.946 686.444 319.824 684.019 317.157C681.675 314.409 678.563 313.034 674.683 313.034C670.722 313.034 667.368 314.287 664.62 316.793C661.952 319.218 660.619 322.855 660.619 327.705V333.767C660.619 338.86 661.952 342.78 664.62 345.528C667.368 348.276 670.722 349.65 674.683 349.65ZM717.753 299.213H734.97V307.942C735.778 306.649 736.788 305.396 738.001 304.184C739.294 302.89 740.79 301.759 742.487 300.789C744.184 299.819 746.084 299.051 748.185 298.485C750.287 297.919 752.55 297.636 754.975 297.636C764.028 297.636 770.899 300.304 775.587 305.639C780.275 310.973 782.619 318.935 782.619 329.524V331.949C782.619 337.445 781.972 342.254 780.679 346.377C779.386 350.499 777.527 353.934 775.102 356.682C772.677 359.431 769.767 361.532 766.372 362.987C762.977 364.361 759.178 365.048 754.975 365.048C751.338 365.048 747.862 364.24 744.548 362.623C741.315 360.926 738.607 358.501 736.425 355.349V387.721H717.753V299.213ZM750.489 349.65C754.207 349.65 757.279 348.155 759.704 345.164C762.209 342.174 763.462 337.768 763.462 331.949V329.524C763.462 323.946 762.25 319.824 759.825 317.157C757.481 314.409 754.369 313.034 750.489 313.034C746.528 313.034 743.174 314.287 740.426 316.793C737.758 319.218 736.425 322.855 736.425 327.705V333.767C736.425 338.86 737.758 342.78 740.426 345.528C743.174 348.276 746.528 349.65 750.489 349.65ZM794.772 299.213H813.443V363.472H794.772V299.213ZM804.108 293.15C800.632 293.15 797.924 292.261 795.984 290.483C794.125 288.624 793.196 286.28 793.196 283.451C793.196 280.622 794.125 278.318 795.984 276.54C797.924 274.681 800.632 273.751 804.108 273.751C807.583 273.751 810.251 274.681 812.11 276.54C814.05 278.318 815.02 280.622 815.02 283.451C815.02 286.28 814.05 288.624 812.11 290.483C810.251 292.261 807.583 293.15 804.108 293.15ZM828.043 299.213H845.26V307.942C846.876 305.113 849.382 302.688 852.777 300.668C856.252 298.647 860.86 297.636 866.599 297.636C874.277 297.636 880.057 299.738 883.937 303.941C887.897 308.063 889.878 313.964 889.878 321.643V363.472H871.206V325.886C871.206 321.683 870.276 318.531 868.417 316.429C866.639 314.247 863.689 313.156 859.566 313.156C857.303 313.156 855.363 313.519 853.747 314.247C852.13 314.894 850.796 315.783 849.746 316.914C848.695 318.046 847.927 319.42 847.442 321.037C846.957 322.572 846.715 324.189 846.715 325.886V363.472H828.043V299.213ZM931.764 389.297C926.51 389.297 922.064 388.812 918.427 387.842C914.87 386.872 911.96 385.498 909.697 383.72C907.434 382.023 905.737 379.921 904.605 377.415C903.554 374.91 902.907 372.081 902.665 368.928H921.579C921.822 369.656 922.145 370.383 922.549 371.111C922.953 371.838 923.559 372.485 924.368 373.05C925.176 373.616 926.146 374.061 927.278 374.384C928.49 374.788 929.985 374.99 931.764 374.99C936.613 374.99 940.251 373.859 942.676 371.596C945.181 369.413 946.434 365.897 946.434 361.047V354.136C944.252 357.289 941.504 359.714 938.19 361.411C934.956 363.028 931.521 363.836 927.884 363.836C923.681 363.836 919.882 363.149 916.487 361.775C913.092 360.401 910.182 358.38 907.757 355.713C905.332 352.964 903.473 349.569 902.18 345.528C900.887 341.487 900.24 336.758 900.24 331.342V328.918C900.24 318.733 902.705 310.973 907.636 305.639C912.567 300.304 919.316 297.636 927.884 297.636C930.39 297.636 932.653 297.919 934.674 298.485C936.775 299.051 938.675 299.819 940.372 300.789C942.069 301.759 943.524 302.89 944.737 304.184C946.03 305.396 947.081 306.649 947.889 307.942V299.213H965.106V359.229C965.106 369.251 962.398 376.769 956.983 381.78C951.648 386.792 943.241 389.297 931.764 389.297ZM932.37 348.438C936.331 348.438 939.645 347.104 942.312 344.437C945.06 341.689 946.434 337.93 946.434 333.161V327.099C946.434 322.572 945.06 319.097 942.312 316.672C939.645 314.247 936.331 313.034 932.37 313.034C928.49 313.034 925.338 314.368 922.913 317.036C920.569 319.622 919.397 323.583 919.397 328.918V331.342C919.397 336.92 920.609 341.163 923.034 344.073C925.54 346.983 928.652 348.438 932.37 348.438Z" fill="#0F1F48"/>
<path d="M67.0902 304.22L6.46803 364.842C4.08117 367.229 -2.10762e-07 365.538 0 362.163L1.32294e-05 150.282C1.32921e-05 149.277 0.399198 148.313 1.10975 147.603L20.0542 128.658C21.5338 127.179 23.9328 127.179 25.4125 128.658L67.0903 170.336C67.8008 171.047 68.2 172.011 68.2 173.015L68.2 301.54C68.2 302.545 67.8008 303.509 67.0902 304.22Z" fill="url(#paint0_linear)"/>
<path d="M72.7738 311.797L12.1516 372.42C9.7647 374.806 11.4552 378.888 14.8307 378.888H226.711C227.716 378.888 228.68 378.488 229.39 377.778L248.335 358.833C249.815 357.354 249.815 354.955 248.335 353.475L206.657 311.797C205.947 311.087 204.983 310.688 203.978 310.688H75.4529C74.4481 310.688 73.4843 311.087 72.7738 311.797Z" fill="url(#paint1_linear)"/>
<path d="M213.289 171.284L273.911 110.662C276.298 108.275 280.38 109.966 280.38 113.341V325.222C280.38 326.227 279.98 327.191 279.27 327.901L260.325 346.846C258.846 348.325 256.447 348.325 254.967 346.846L213.289 305.168C212.579 304.457 212.18 303.494 212.18 302.489L212.18 173.964C212.18 172.959 212.579 171.995 213.289 171.284Z" fill="url(#paint2_linear)"/>
<path d="M303.205 67.0902L363.828 6.46803C366.215 4.08117 364.524 -7.37743e-08 361.148 0L149.268 4.6308e-06C148.263 4.65276e-06 147.299 0.39919 146.589 1.10975L127.644 20.0542C126.165 21.5338 126.165 23.9328 127.644 25.4125L169.322 67.0902C170.033 67.8008 170.996 68.2 172.001 68.2L300.526 68.2C301.531 68.2 302.495 67.8008 303.205 67.0902Z" fill="url(#paint3_linear)"/>
<path d="M308.89 74.6682L369.512 14.046C371.899 11.6591 375.98 13.3496 375.98 16.7251V228.606C375.98 229.611 375.581 230.574 374.87 231.285L355.926 250.229C354.446 251.709 352.047 251.709 350.568 250.229L308.89 208.551C308.179 207.841 307.78 206.877 307.78 205.872L307.78 77.3473C307.78 76.3424 308.179 75.3787 308.89 74.6682Z" fill="url(#paint4_linear)"/>
<path d="M162.69 207.603L102.068 268.225C99.6808 270.612 95.5996 268.921 95.5996 265.546L95.5996 53.6654C95.5996 52.6605 95.9988 51.6968 96.7094 50.9862L115.654 32.0418C117.133 30.5621 119.532 30.5621 121.012 32.0418L162.69 73.7196C163.4 74.4301 163.8 75.3938 163.8 76.3987L163.8 204.924C163.8 205.929 163.4 206.892 162.69 207.603Z" fill="url(#paint5_linear)"/>
<path d="M168.374 215.181L107.752 275.803C105.365 278.19 107.056 282.271 110.431 282.271H322.312C323.317 282.271 324.28 281.872 324.991 281.161L343.935 262.217C345.415 260.737 345.415 258.338 343.935 256.859L302.258 215.181C301.547 214.47 300.583 214.071 299.578 214.071H171.053C170.048 214.071 169.085 214.47 168.374 215.181Z" fill="url(#paint6_linear)"/>
<path d="M207.165 167.09L267.787 106.468C270.174 104.081 268.484 100 265.108 100L53.2275 100C52.2226 100 51.2589 100.399 50.5483 101.11L31.6039 120.054C30.1242 121.534 30.1242 123.933 31.6039 125.412L73.2816 167.09C73.9922 167.801 74.9559 168.2 75.9608 168.2L204.486 168.2C205.491 168.2 206.454 167.801 207.165 167.09Z" fill="url(#paint7_linear)"/>
<defs>
<linearGradient id="paint0_linear" x1="19.9941" y1="379" x2="151.546" y2="69.7314" gradientUnits="userSpaceOnUse">
<stop stop-color="#1D05AE"/>
<stop offset="1" stop-color="#0038FF"/>
</linearGradient>
<linearGradient id="paint1_linear" x1="19.9941" y1="379" x2="151.546" y2="69.7314" gradientUnits="userSpaceOnUse">
<stop stop-color="#1D05AE"/>
<stop offset="1" stop-color="#0038FF"/>
</linearGradient>
<linearGradient id="paint2_linear" x1="19.9941" y1="379" x2="151.546" y2="69.7314" gradientUnits="userSpaceOnUse">
<stop stop-color="#1D05AE"/>
<stop offset="1" stop-color="#0038FF"/>
</linearGradient>
<linearGradient id="paint3_linear" x1="95.4941" y1="282" x2="375.494" y2="21.9998" gradientUnits="userSpaceOnUse">
<stop stop-color="#EC008C"/>
<stop offset="1" stop-color="#FC6767"/>
</linearGradient>
<linearGradient id="paint4_linear" x1="95.4941" y1="282" x2="375.494" y2="21.9998" gradientUnits="userSpaceOnUse">
<stop stop-color="#EC008C"/>
<stop offset="1" stop-color="#FC6767"/>
</linearGradient>
<linearGradient id="paint5_linear" x1="95.4941" y1="282" x2="375.494" y2="21.9998" gradientUnits="userSpaceOnUse">
<stop stop-color="#EC008C"/>
<stop offset="1" stop-color="#FC6767"/>
</linearGradient>
<linearGradient id="paint6_linear" x1="95.4941" y1="282" x2="375.494" y2="21.9998" gradientUnits="userSpaceOnUse">
<stop stop-color="#EC008C"/>
<stop offset="1" stop-color="#FC6767"/>
</linearGradient>
<linearGradient id="paint7_linear" x1="19.5527" y1="382.383" x2="151.104" y2="73.1152" gradientUnits="userSpaceOnUse">
<stop stop-color="#1D05AE"/>
<stop offset="1" stop-color="#0038FF"/>
</linearGradient>
</defs>
</svg>
