<svg width="1128" height="390" viewBox="0 0 1128 390" fill="none" xmlns="http://www.w3.org/2000/svg">
<path d="M67.0902 305.129L6.46803 365.751C4.08117 368.138 -2.10762e-07 366.447 0 363.072L1.32322e-05 151.191C1.3295e-05 150.186 0.399198 149.223 1.10975 148.512L20.0542 129.568C21.5338 128.088 23.9328 128.088 25.4125 129.568L67.0903 171.245C67.8008 171.956 68.2 172.92 68.2 173.924L68.2 302.45C68.2 303.454 67.8008 304.418 67.0902 305.129Z" fill="url(#paint0_linear)"/>
<path d="M73.2776 311.798L12.6554 372.42C10.2686 374.807 11.9591 378.888 15.3346 378.888H227.215C228.22 378.888 229.184 378.489 229.894 377.778L248.839 358.834C250.318 357.354 250.318 354.955 248.839 353.475L207.161 311.798C206.45 311.087 205.487 310.688 204.482 310.688H75.9568C74.9519 310.688 73.9882 311.087 73.2776 311.798Z" fill="url(#paint1_linear)"/>
<path d="M213.793 171.285L274.415 110.663C276.802 108.276 280.883 109.966 280.883 113.342V325.222C280.883 326.227 280.484 327.191 279.774 327.901L260.829 346.846C259.35 348.325 256.951 348.325 255.471 346.846L213.793 305.168C213.083 304.457 212.683 303.494 212.683 302.489L212.683 173.964C212.683 172.959 213.083 171.995 213.793 171.285Z" fill="url(#paint2_linear)"/>
<path d="M305.123 67.0902L365.746 6.46803C368.132 4.08117 366.442 -7.37747e-08 363.066 0L151.186 4.6308e-06C150.181 4.65276e-06 149.217 0.39919 148.507 1.10975L129.562 20.0542C128.083 21.5338 128.083 23.9328 129.562 25.4125L171.24 67.0902C171.951 67.8008 172.914 68.2 173.919 68.2L302.444 68.2C303.449 68.2 304.413 67.8008 305.123 67.0902Z" fill="url(#paint3_linear)"/>
<path d="M312.222 73.2539L372.844 12.6317C375.231 10.2449 379.312 11.9353 379.312 15.3109V227.191C379.312 228.196 378.913 229.16 378.202 229.871L359.258 248.815C357.778 250.295 355.379 250.295 353.9 248.815L312.222 207.137C311.511 206.427 311.112 205.463 311.112 204.458L311.112 75.9331C311.112 74.9282 311.511 73.9645 312.222 73.2539Z" fill="url(#paint4_linear)"/>
<path d="M164.608 207.603L103.986 268.225C101.599 270.612 97.5176 268.921 97.5176 265.546L97.5176 53.6654C97.5176 52.6605 97.9168 51.6968 98.6273 50.9862L117.572 32.0418C119.051 30.5621 121.45 30.5621 122.93 32.0418L164.608 73.7196C165.318 74.4301 165.718 75.3938 165.718 76.3987L165.718 204.924C165.718 205.929 165.318 206.892 164.608 207.603Z" fill="url(#paint5_linear)"/>
<path d="M171.706 213.767L111.084 274.389C108.697 276.776 110.388 280.857 113.763 280.857H325.644C326.649 280.857 327.613 280.458 328.323 279.747L347.268 260.803C348.747 259.323 348.747 256.924 347.268 255.444L305.59 213.767C304.879 213.056 303.915 212.657 302.911 212.657H174.386C173.381 212.657 172.417 213.056 171.706 213.767Z" fill="url(#paint6_linear)"/>
<path d="M206.962 164.968L267.584 104.346C269.971 101.959 268.28 97.8779 264.905 97.8779L53.0243 97.8779C52.0195 97.8779 51.0557 98.2771 50.3452 98.9877L31.4007 117.932C29.9211 119.412 29.9211 121.811 31.4007 123.29L73.0785 164.968C73.7891 165.679 74.7528 166.078 75.7577 166.078L204.283 166.078C205.288 166.078 206.251 165.679 206.962 164.968Z" fill="url(#paint7_linear)"/>
<path d="M504.992 105.576C499.414 105.576 494.12 104.768 489.109 103.151C484.097 101.535 479.692 98.9886 475.893 95.5129C472.175 91.9564 469.224 87.4703 467.042 82.0548C464.86 76.5583 463.768 69.9303 463.768 62.1707V59.7458C463.768 52.3095 464.86 45.9239 467.042 40.5892C469.224 35.2544 472.175 30.8896 475.893 27.4948C479.692 24.0999 484.097 21.5942 489.109 19.9776C494.12 18.361 499.414 17.5527 504.992 17.5527C510.569 17.5527 515.863 18.361 520.875 19.9776C525.886 21.5942 530.251 24.0999 533.969 27.4948C537.768 30.8896 540.759 35.2544 542.941 40.5892C545.123 45.9239 546.215 52.3095 546.215 59.7458V62.1707C546.215 69.9303 545.123 76.5583 542.941 82.0548C540.759 87.4703 537.768 91.9564 533.969 95.5129C530.251 98.9886 525.886 101.535 520.875 103.151C515.863 104.768 510.569 105.576 504.992 105.576ZM504.992 87.3895C507.416 87.3895 509.761 87.0258 512.024 86.2983C514.287 85.49 516.267 84.1563 517.965 82.2973C519.662 80.3573 521.036 77.7708 522.087 74.5376C523.138 71.3044 523.663 67.1821 523.663 62.1707V59.7458C523.663 55.0577 523.138 51.1779 522.087 48.1063C521.036 44.954 519.662 42.4887 517.965 40.7104C516.267 38.8513 514.287 37.5581 512.024 36.8306C509.761 36.1031 507.416 35.7394 504.992 35.7394C502.567 35.7394 500.223 36.1031 497.959 36.8306C495.696 37.5581 493.716 38.8513 492.018 40.7104C490.321 42.4887 488.947 44.954 487.896 48.1063C486.845 51.1779 486.32 55.0577 486.32 59.7458V62.1707C486.32 67.1821 486.845 71.3044 487.896 74.5376C488.947 77.7708 490.321 80.3573 492.018 82.2973C493.716 84.1563 495.696 85.49 497.959 86.2983C500.223 87.0258 502.567 87.3895 504.992 87.3895ZM596.111 105.576C593.686 105.576 591.422 105.293 589.321 104.727C587.219 104.162 585.32 103.394 583.622 102.424C581.925 101.454 580.43 100.363 579.136 99.1502C577.924 97.8569 576.914 96.5637 576.105 95.2704V104H558.889V19.1289H577.56V47.8638C579.743 44.7115 582.45 42.327 585.684 40.7104C588.998 39.013 592.473 38.1643 596.111 38.1643C605.163 38.1643 612.034 40.8317 616.722 46.1664C621.41 51.5012 623.754 59.4629 623.754 70.0516V72.4765C623.754 77.9729 623.108 82.7822 621.814 86.9045C620.521 91.0268 618.662 94.4621 616.237 97.2103C613.812 99.9585 610.902 102.06 607.508 103.515C604.113 104.889 600.314 105.576 596.111 105.576ZM591.625 90.1781C595.343 90.1781 598.414 88.6828 600.839 85.6921C603.345 82.7014 604.598 78.2962 604.598 72.4765V70.0516C604.598 64.4743 603.385 60.352 600.96 57.6846C598.616 54.9364 595.504 53.5623 591.625 53.5623C587.664 53.5623 584.309 54.8152 581.561 57.3209C578.894 59.7458 577.56 63.3831 577.56 68.2329V74.2951C577.56 79.3874 578.894 83.3076 581.561 86.0558C584.309 88.804 587.664 90.1781 591.625 90.1781ZM631.542 129.825C630.653 129.825 629.643 129.785 628.511 129.704C627.38 129.704 626.369 129.623 625.48 129.461V113.942C626.127 114.104 626.854 114.185 627.663 114.185C628.39 114.265 629.077 114.306 629.724 114.306C630.694 114.306 631.542 114.144 632.27 113.821C633.078 113.497 633.725 112.891 634.21 112.002C634.776 111.113 635.18 109.86 635.422 108.244C635.745 106.708 635.907 104.687 635.907 102.181V39.7405H654.579V104C654.579 109.092 654.215 113.295 653.488 116.609C652.76 119.923 651.507 122.55 649.729 124.49C648.032 126.511 645.688 127.885 642.697 128.613C639.706 129.421 635.988 129.825 631.542 129.825ZM645.243 33.6782C641.767 33.6782 639.059 32.7891 637.12 31.0109C635.261 29.1518 634.331 26.8077 634.331 23.9787C634.331 21.1496 635.261 18.846 637.12 17.0678C639.059 15.2087 641.767 14.2791 645.243 14.2791C648.719 14.2791 651.386 15.2087 653.245 17.0678C655.185 18.846 656.155 21.1496 656.155 23.9787C656.155 26.8077 655.185 29.1518 653.245 31.0109C651.386 32.7891 648.719 33.6782 645.243 33.6782ZM700.096 105.576C695.408 105.576 691.002 104.93 686.88 103.636C682.839 102.262 679.322 100.201 676.332 97.4528C673.341 94.7046 670.997 91.2693 669.3 87.147C667.602 82.9439 666.753 78.0537 666.753 72.4765V70.0516C666.753 64.7168 667.562 60.0691 669.178 56.1085C670.876 52.1478 673.139 48.8338 675.968 46.1664C678.878 43.499 682.273 41.5187 686.153 40.2254C690.113 38.8513 694.357 38.1643 698.883 38.1643C709.472 38.1643 717.474 40.9125 722.89 46.4089C728.305 51.8245 731.013 59.7054 731.013 70.0516V76.72H685.91C685.991 79.2257 686.435 81.3677 687.244 83.146C688.052 84.8434 689.103 86.2579 690.396 87.3895C691.689 88.5211 693.144 89.3698 694.761 89.9356C696.458 90.4206 698.237 90.6631 700.096 90.6631C703.652 90.6631 706.441 90.1377 708.461 89.0869C710.563 87.9553 711.937 86.46 712.584 84.6009H729.801C728.507 91.6331 725.314 96.887 720.222 100.363C715.13 103.838 708.421 105.576 700.096 105.576ZM699.489 52.9561C697.792 52.9561 696.135 53.1582 694.518 53.5623C692.983 53.9665 691.568 54.6535 690.275 55.6235C689.062 56.5126 688.052 57.6846 687.244 59.1396C686.516 60.5945 686.112 62.3728 686.031 64.4743H712.705C712.705 62.2111 712.341 60.352 711.614 58.8971C710.886 57.4421 709.916 56.2701 708.704 55.381C707.572 54.4919 706.198 53.8856 704.582 53.5623C702.965 53.1582 701.268 52.9561 699.489 52.9561ZM772.217 105.576C767.448 105.576 763.043 104.889 759.001 103.515C755.041 102.141 751.606 100.08 748.696 97.3316C745.786 94.5834 743.523 91.1481 741.906 87.0258C740.289 82.9035 739.481 78.0537 739.481 72.4765V70.0516C739.481 64.9593 740.33 60.4328 742.027 56.4722C743.805 52.5115 746.15 49.1975 749.059 46.5301C752.05 43.7819 755.526 41.7208 759.486 40.3467C763.447 38.8917 767.691 38.1643 772.217 38.1643C777.067 38.1643 781.31 38.8109 784.948 40.1042C788.666 41.3975 791.778 43.1757 794.284 45.4389C796.789 47.6213 798.729 50.2079 800.103 53.1986C801.477 56.1893 802.286 59.3821 802.528 62.7769H783.372C782.725 59.867 781.513 57.6442 779.734 56.1085C778.037 54.4919 775.531 53.6836 772.217 53.6836C768.256 53.6836 764.983 55.0577 762.396 57.8059C759.891 60.4733 758.638 64.5552 758.638 70.0516V72.4765C758.638 78.4578 759.85 82.8631 762.275 85.6921C764.781 88.5211 768.095 89.9356 772.217 89.9356C775.046 89.9356 777.431 89.2082 779.371 87.7532C781.391 86.2175 782.725 83.9543 783.372 80.9636H802.528C802.286 84.7626 801.397 88.1978 799.861 91.2693C798.325 94.26 796.223 96.8062 793.556 98.9077C790.97 101.009 787.858 102.666 784.22 103.879C780.664 105.01 776.663 105.576 772.217 105.576ZM840.138 104.727C836.096 104.727 832.621 104.364 829.711 103.636C826.801 102.828 824.416 101.535 822.557 99.7564C820.698 97.9782 819.324 95.6746 818.435 92.8455C817.546 89.9356 817.101 86.3791 817.101 82.176V55.0173H809.22V39.7405H817.101V25.1911H835.773V39.7405H850.443V55.0173H835.773V79.1449C835.773 82.7822 836.339 85.3688 837.47 86.9045C838.683 88.4403 840.986 89.2082 844.381 89.2082C846.806 89.2082 849.231 89.0869 851.656 88.8444V104.121C850.12 104.283 848.504 104.404 846.806 104.485C845.109 104.647 842.886 104.727 840.138 104.727ZM466.8 149.129H507.416C517.359 149.129 524.593 151.109 529.119 155.07C533.646 158.95 535.909 164.527 535.909 171.802C535.909 176.166 534.777 179.925 532.514 183.077C530.251 186.149 527.179 188.372 523.3 189.746C528.311 190.877 532.272 193.181 535.181 196.657C538.091 200.052 539.546 204.497 539.546 209.994C539.546 217.43 537.081 223.29 532.15 227.574C527.301 231.858 519.46 234 508.629 234H466.8V149.129ZM503.779 217.268C509.033 217.268 512.67 216.5 514.691 214.965C516.712 213.348 517.722 210.883 517.722 207.569C517.722 204.255 516.671 201.789 514.57 200.173C512.549 198.556 508.871 197.748 503.537 197.748H488.624V217.268H503.779ZM502.082 182.956C506.77 182.956 509.922 182.229 511.539 180.774C513.236 179.238 514.085 177.096 514.085 174.348C514.085 171.519 513.236 169.417 511.539 168.043C509.922 166.588 506.81 165.861 502.203 165.861H488.624V182.956H502.082ZM574.11 234.727C570.231 234.727 566.876 234.404 564.047 233.758C561.218 233.111 558.874 231.939 557.015 230.241C555.237 228.463 553.903 226.079 553.014 223.088C552.125 220.016 551.68 216.096 551.68 211.327V149.129H570.352V208.539C570.352 210.559 570.473 212.257 570.716 213.631C570.958 215.005 571.362 216.096 571.928 216.905C572.575 217.713 573.464 218.319 574.595 218.723C575.727 219.047 577.141 219.208 578.839 219.208C579.809 219.208 580.617 219.208 581.264 219.208C581.91 219.127 582.557 219.047 583.204 218.966V234.364C580.779 234.606 577.748 234.727 574.11 234.727ZM622.618 235.576C618.091 235.576 613.848 234.93 609.887 233.636C605.926 232.262 602.451 230.201 599.46 227.453C596.469 224.705 594.125 221.269 592.428 217.147C590.73 212.944 589.882 208.054 589.882 202.476V200.052C589.882 194.798 590.73 190.19 592.428 186.23C594.125 182.269 596.469 178.955 599.46 176.288C602.451 173.62 605.926 171.6 609.887 170.225C613.848 168.851 618.091 168.164 622.618 168.164C627.144 168.164 631.388 168.851 635.348 170.225C639.309 171.6 642.785 173.62 645.775 176.288C648.766 178.955 651.11 182.269 652.807 186.23C654.505 190.19 655.354 194.798 655.354 200.052V202.476C655.354 207.973 654.505 212.823 652.807 217.026C651.11 221.148 648.766 224.583 645.775 227.332C642.785 230.08 639.309 232.141 635.348 233.515C631.388 234.889 627.144 235.576 622.618 235.576ZM622.618 220.057C626.982 220.057 630.337 218.481 632.681 215.328C635.025 212.176 636.197 207.892 636.197 202.476V200.052C636.197 195.202 635.025 191.282 632.681 188.291C630.337 185.219 626.982 183.684 622.618 183.684C618.253 183.684 614.898 185.219 612.554 188.291C610.21 191.282 609.038 195.202 609.038 200.052V202.476C609.038 208.054 610.21 212.378 612.554 215.45C614.898 218.521 618.253 220.057 622.618 220.057ZM696.529 235.576C691.76 235.576 687.355 234.889 683.314 233.515C679.353 232.141 675.918 230.08 673.008 227.332C670.098 224.583 667.835 221.148 666.218 217.026C664.602 212.903 663.793 208.054 663.793 202.476V200.052C663.793 194.959 664.642 190.433 666.339 186.472C668.118 182.512 670.462 179.198 673.372 176.53C676.362 173.782 679.838 171.721 683.799 170.347C687.759 168.892 692.003 168.164 696.529 168.164C701.379 168.164 705.623 168.811 709.26 170.104C712.978 171.397 716.09 173.176 718.596 175.439C721.102 177.621 723.041 180.208 724.416 183.199C725.79 186.189 726.598 189.382 726.84 192.777H707.684C707.037 189.867 705.825 187.644 704.046 186.108C702.349 184.492 699.843 183.684 696.529 183.684C692.569 183.684 689.295 185.058 686.709 187.806C684.203 190.473 682.95 194.555 682.95 200.052V202.476C682.95 208.458 684.162 212.863 686.587 215.692C689.093 218.521 692.407 219.936 696.529 219.936C699.358 219.936 701.743 219.208 703.683 217.753C705.704 216.217 707.037 213.954 707.684 210.964H726.84C726.598 214.763 725.709 218.198 724.173 221.269C722.637 224.26 720.536 226.806 717.868 228.908C715.282 231.009 712.17 232.666 708.533 233.879C704.976 235.01 700.975 235.576 696.529 235.576ZM737.17 149.129H755.842V194.474L776.574 169.74H797.671L775.119 196.778L800.217 234H778.635L762.51 209.751L755.842 217.511V234H737.17V149.129ZM836.657 235.576C831.888 235.576 827.482 234.889 823.441 233.515C819.48 232.141 816.045 230.08 813.135 227.332C810.225 224.583 807.962 221.148 806.346 217.026C804.729 212.903 803.921 208.054 803.921 202.476V200.052C803.921 194.959 804.769 190.433 806.467 186.472C808.245 182.512 810.589 179.198 813.499 176.53C816.49 173.782 819.965 171.721 823.926 170.347C827.887 168.892 832.13 168.164 836.657 168.164C841.506 168.164 845.75 168.811 849.387 170.104C853.105 171.397 856.217 173.176 858.723 175.439C861.229 177.621 863.169 180.208 864.543 183.199C865.917 186.189 866.725 189.382 866.968 192.777H847.811C847.164 189.867 845.952 187.644 844.174 186.108C842.476 184.492 839.971 183.684 836.657 183.684C832.696 183.684 829.422 185.058 826.836 187.806C824.33 190.473 823.077 194.555 823.077 200.052V202.476C823.077 208.458 824.29 212.863 826.715 215.692C829.22 218.521 832.534 219.936 836.657 219.936C839.486 219.936 841.87 219.208 843.81 217.753C845.831 216.217 847.164 213.954 847.811 210.964H866.968C866.725 214.763 865.836 218.198 864.3 221.269C862.765 224.26 860.663 226.806 857.996 228.908C855.409 231.009 852.297 232.666 848.66 233.879C845.103 235.01 841.102 235.576 836.657 235.576ZM877.297 149.129H895.969V177.864C896.615 176.813 897.505 175.722 898.636 174.59C899.768 173.459 901.142 172.408 902.759 171.438C904.456 170.468 906.396 169.7 908.578 169.134C910.761 168.488 913.186 168.164 915.853 168.164C923.532 168.164 929.311 170.266 933.191 174.469C937.151 178.591 939.132 184.451 939.132 192.049V234H920.46V196.414C920.46 192.211 919.531 189.059 917.672 186.957C915.893 184.775 912.943 183.684 908.821 183.684C904.294 183.684 901.021 184.896 899 187.321C896.979 189.746 895.969 192.777 895.969 196.414V234H877.297V149.129ZM971.925 235.576C968.449 235.576 965.337 235.051 962.589 234C959.921 232.949 957.658 231.535 955.799 229.756C953.94 227.897 952.526 225.755 951.556 223.33C950.586 220.825 950.101 218.117 950.101 215.207C950.101 208.822 952.041 203.931 955.92 200.537C959.881 197.142 965.822 195.444 973.743 195.444H992.051V192.777C992.051 188.897 991.122 186.23 989.263 184.775C987.404 183.239 984.857 182.471 981.624 182.471C978.553 182.471 976.289 182.956 974.835 183.926C973.38 184.896 972.571 186.432 972.41 188.533H953.738C953.9 185.623 954.627 182.956 955.92 180.531C957.214 178.025 959.032 175.884 961.376 174.105C963.801 172.246 966.752 170.791 970.227 169.74C973.703 168.69 977.704 168.164 982.23 168.164C986.434 168.164 990.273 168.649 993.749 169.619C997.305 170.508 1000.34 172.004 1002.84 174.105C1005.35 176.126 1007.29 178.793 1008.66 182.107C1010.04 185.341 1010.72 189.301 1010.72 193.989V217.632C1010.72 221.027 1010.8 224.018 1010.97 226.604C1011.13 229.11 1011.37 231.575 1011.69 234H993.991C993.829 232.626 993.668 231.413 993.506 230.363C993.425 229.312 993.385 228.019 993.385 226.483C991.445 229.069 988.737 231.252 985.262 233.03C981.867 234.727 977.421 235.576 971.925 235.576ZM977.987 222.482C981.948 222.482 985.262 221.35 987.929 219.087C990.677 216.824 992.051 213.712 992.051 209.751V207.084H977.381C974.632 207.084 972.571 207.811 971.197 209.266C969.904 210.721 969.257 212.418 969.257 214.358C969.257 216.702 969.904 218.642 971.197 220.178C972.571 221.714 974.835 222.482 977.987 222.482ZM1024.68 169.74H1043.35V234H1024.68V169.74ZM1034.01 163.678C1030.54 163.678 1027.83 162.789 1025.89 161.011C1024.03 159.152 1023.1 156.808 1023.1 153.979C1023.1 151.15 1024.03 148.846 1025.89 147.068C1027.83 145.209 1030.54 144.279 1034.01 144.279C1037.49 144.279 1040.15 145.209 1042.01 147.068C1043.95 148.846 1044.92 151.15 1044.92 153.979C1044.92 156.808 1043.95 159.152 1042.01 161.011C1040.15 162.789 1037.49 163.678 1034.01 163.678ZM1057.95 169.74H1075.16V178.47C1076.78 175.641 1079.29 173.216 1082.68 171.195C1086.16 169.175 1090.76 168.164 1096.5 168.164C1104.18 168.164 1109.96 170.266 1113.84 174.469C1117.8 178.591 1119.78 184.492 1119.78 192.171V234H1101.11V196.414C1101.11 192.211 1100.18 189.059 1098.32 186.957C1096.54 184.775 1093.59 183.684 1089.47 183.684C1087.21 183.684 1085.27 184.047 1083.65 184.775C1082.03 185.421 1080.7 186.311 1079.65 187.442C1078.6 188.574 1077.83 189.948 1077.35 191.564C1076.86 193.1 1076.62 194.717 1076.62 196.414V234H1057.95V169.74ZM466.8 279.129H489.109L512.63 322.171L535.909 279.129H557.733V364H535.909V315.381L518.328 347.632H506.204L488.624 315.381V364H466.8V279.129ZM593.457 365.576C589.982 365.576 586.87 365.051 584.122 364C581.454 362.949 579.191 361.535 577.332 359.756C575.473 357.897 574.058 355.755 573.088 353.33C572.118 350.825 571.633 348.117 571.633 345.207C571.633 338.822 573.573 333.931 577.453 330.537C581.414 327.142 587.355 325.444 595.276 325.444H613.584V322.777C613.584 318.897 612.654 316.23 610.795 314.775C608.936 313.239 606.39 312.471 603.157 312.471C600.085 312.471 597.822 312.956 596.367 313.926C594.912 314.896 594.104 316.432 593.942 318.533H575.271C575.432 315.623 576.16 312.956 577.453 310.531C578.746 308.025 580.565 305.884 582.909 304.105C585.334 302.246 588.284 300.791 591.76 299.74C595.236 298.69 599.237 298.164 603.763 298.164C607.966 298.164 611.806 298.649 615.281 299.619C618.838 300.508 621.869 302.004 624.375 304.105C626.88 306.126 628.82 308.793 630.194 312.107C631.569 315.341 632.256 319.301 632.256 323.989V347.632C632.256 351.027 632.336 354.018 632.498 356.604C632.66 359.11 632.902 361.575 633.226 364H615.524C615.362 362.626 615.201 361.413 615.039 360.363C614.958 359.312 614.918 358.019 614.918 356.483C612.978 359.069 610.27 361.252 606.794 363.03C603.399 364.727 598.954 365.576 593.457 365.576ZM599.52 352.482C603.48 352.482 606.794 351.35 609.462 349.087C612.21 346.824 613.584 343.712 613.584 339.751V337.084H598.913C596.165 337.084 594.104 337.811 592.73 339.266C591.437 340.721 590.79 342.418 590.79 344.358C590.79 346.702 591.437 348.642 592.73 350.178C594.104 351.714 596.367 352.482 599.52 352.482ZM644.996 299.74H662.212V308.47C663.021 307.177 664.031 305.924 665.244 304.711C666.537 303.418 668.032 302.287 669.73 301.317C671.427 300.347 673.327 299.579 675.428 299.013C677.53 298.447 679.793 298.164 682.218 298.164C691.271 298.164 698.141 300.832 702.829 306.166C707.517 311.501 709.862 319.463 709.862 330.052V332.476C709.862 337.973 709.215 342.782 707.922 346.905C706.628 351.027 704.769 354.462 702.344 357.21C699.919 359.959 697.01 362.06 693.615 363.515C690.22 364.889 686.421 365.576 682.218 365.576C678.58 365.576 675.105 364.768 671.791 363.151C668.558 361.454 665.85 359.029 663.667 355.877V388.249H644.996V299.74ZM677.732 350.178C681.45 350.178 684.521 348.683 686.946 345.692C689.452 342.701 690.705 338.296 690.705 332.476V330.052C690.705 324.474 689.492 320.352 687.068 317.685C684.723 314.936 681.612 313.562 677.732 313.562C673.771 313.562 670.417 314.815 667.668 317.321C665.001 319.746 663.667 323.383 663.667 328.233V334.295C663.667 339.387 665.001 343.308 667.668 346.056C670.417 348.804 673.771 350.178 677.732 350.178ZM720.802 299.74H738.019V308.47C738.827 307.177 739.837 305.924 741.05 304.711C742.343 303.418 743.838 302.287 745.536 301.317C747.233 300.347 749.133 299.579 751.234 299.013C753.336 298.447 755.599 298.164 758.024 298.164C767.077 298.164 773.947 300.832 778.635 306.166C783.324 311.501 785.668 319.463 785.668 330.052V332.476C785.668 337.973 785.021 342.782 783.728 346.905C782.434 351.027 780.575 354.462 778.151 357.21C775.726 359.959 772.816 362.06 769.421 363.515C766.026 364.889 762.227 365.576 758.024 365.576C754.387 365.576 750.911 364.768 747.597 363.151C744.364 361.454 741.656 359.029 739.474 355.877V388.249H720.802V299.74ZM753.538 350.178C757.256 350.178 760.328 348.683 762.752 345.692C765.258 342.701 766.511 338.296 766.511 332.476V330.052C766.511 324.474 765.299 320.352 762.874 317.685C760.53 314.936 757.418 313.562 753.538 313.562C749.577 313.562 746.223 314.815 743.475 317.321C740.807 319.746 739.474 323.383 739.474 328.233V334.295C739.474 339.387 740.807 343.308 743.475 346.056C746.223 348.804 749.577 350.178 753.538 350.178ZM797.821 299.74H816.492V364H797.821V299.74ZM807.156 293.678C803.681 293.678 800.973 292.789 799.033 291.011C797.174 289.152 796.244 286.808 796.244 283.979C796.244 281.15 797.174 278.846 799.033 277.068C800.973 275.209 803.681 274.279 807.156 274.279C810.632 274.279 813.299 275.209 815.158 277.068C817.098 278.846 818.068 281.15 818.068 283.979C818.068 286.808 817.098 289.152 815.158 291.011C813.299 292.789 810.632 293.678 807.156 293.678ZM831.092 299.74H848.308V308.47C849.925 305.641 852.431 303.216 855.826 301.195C859.301 299.175 863.909 298.164 869.647 298.164C877.326 298.164 883.106 300.266 886.985 304.469C890.946 308.591 892.926 314.492 892.926 322.171V364H874.255V326.414C874.255 322.211 873.325 319.059 871.466 316.957C869.688 314.775 866.738 313.684 862.615 313.684C860.352 313.684 858.412 314.047 856.796 314.775C855.179 315.421 853.845 316.311 852.794 317.442C851.744 318.574 850.976 319.948 850.491 321.564C850.006 323.1 849.763 324.717 849.763 326.414V364H831.092V299.74ZM934.812 389.825C929.559 389.825 925.113 389.34 921.476 388.37C917.919 387.4 915.009 386.026 912.746 384.248C910.483 382.55 908.785 380.449 907.654 377.943C906.603 375.437 905.956 372.608 905.714 369.456H924.628C924.87 370.183 925.194 370.911 925.598 371.638C926.002 372.366 926.608 373.013 927.417 373.578C928.225 374.144 929.195 374.589 930.326 374.912C931.539 375.316 933.034 375.518 934.812 375.518C939.662 375.518 943.3 374.387 945.724 372.123C948.23 369.941 949.483 366.425 949.483 361.575V354.664C947.301 357.817 944.552 360.241 941.238 361.939C938.005 363.555 934.57 364.364 930.933 364.364C926.73 364.364 922.931 363.677 919.536 362.303C916.141 360.928 913.231 358.908 910.806 356.24C908.381 353.492 906.522 350.097 905.229 346.056C903.936 342.014 903.289 337.286 903.289 331.87V329.445C903.289 319.261 905.754 311.501 910.685 306.166C915.615 300.832 922.365 298.164 930.933 298.164C933.438 298.164 935.702 298.447 937.722 299.013C939.824 299.579 941.723 300.347 943.421 301.317C945.118 302.287 946.573 303.418 947.786 304.711C949.079 305.924 950.13 307.177 950.938 308.47V299.74H968.155V359.756C968.155 369.779 965.447 377.296 960.031 382.308C954.697 387.319 946.29 389.825 934.812 389.825ZM935.419 348.966C939.379 348.966 942.693 347.632 945.361 344.965C948.109 342.216 949.483 338.458 949.483 333.689V327.627C949.483 323.1 948.109 319.625 945.361 317.2C942.693 314.775 939.379 313.562 935.419 313.562C931.539 313.562 928.387 314.896 925.962 317.563C923.618 320.15 922.446 324.111 922.446 329.445V331.87C922.446 337.447 923.658 341.691 926.083 344.601C928.589 347.511 931.701 348.966 935.419 348.966Z" fill="#0F1F48"/>
<defs>
<linearGradient id="paint0_linear" x1="21.9046" y1="379.007" x2="153.456" y2="69.7389" gradientUnits="userSpaceOnUse">
<stop stop-color="#1D05AE"/>
<stop offset="1" stop-color="#0038FF"/>
</linearGradient>
<linearGradient id="paint1_linear" x1="21.9046" y1="379.007" x2="153.456" y2="69.7389" gradientUnits="userSpaceOnUse">
<stop stop-color="#1D05AE"/>
<stop offset="1" stop-color="#0038FF"/>
</linearGradient>
<linearGradient id="paint2_linear" x1="21.9046" y1="379.007" x2="153.456" y2="69.7389" gradientUnits="userSpaceOnUse">
<stop stop-color="#1D05AE"/>
<stop offset="1" stop-color="#0038FF"/>
</linearGradient>
<linearGradient id="paint3_linear" x1="97.4121" y1="282" x2="377.412" y2="21.9998" gradientUnits="userSpaceOnUse">
<stop stop-color="#EC008C"/>
<stop offset="1" stop-color="#FC6767"/>
</linearGradient>
<linearGradient id="paint4_linear" x1="97.4121" y1="282" x2="377.412" y2="21.9998" gradientUnits="userSpaceOnUse">
<stop stop-color="#EC008C"/>
<stop offset="1" stop-color="#FC6767"/>
</linearGradient>
<linearGradient id="paint5_linear" x1="97.4121" y1="282" x2="377.412" y2="21.9998" gradientUnits="userSpaceOnUse">
<stop stop-color="#EC008C"/>
<stop offset="1" stop-color="#FC6767"/>
</linearGradient>
<linearGradient id="paint6_linear" x1="97.4121" y1="282" x2="377.412" y2="21.9998" gradientUnits="userSpaceOnUse">
<stop stop-color="#EC008C"/>
<stop offset="1" stop-color="#FC6767"/>
</linearGradient>
<linearGradient id="paint7_linear" x1="19.3496" y1="380.261" x2="150.901" y2="70.9931" gradientUnits="userSpaceOnUse">
<stop stop-color="#1D05AE"/>
<stop offset="1" stop-color="#0038FF"/>
</linearGradient>
</defs>
</svg>
